<?xml version="1.0" encoding="UTF-8" ?>
<!DOCTYPE svg PUBLIC "-//W3C//DTD SVG 1.1//EN" "http://www.w3.org/Graphics/SVG/1.1/DTD/svg11.dtd">
<svg width="512pt" height="360pt" viewBox="0 0 512 360" version="1.1" xmlns="http://www.w3.org/2000/svg">
<g id="#ffffffff">
<path fill="#ffffff" opacity="1.00" d=" M 0.00 25.76 C 0.07 12.52 11.79 0.76 25.06 0.83 C 136.04 0.76 247.03 0.82 358.02 0.80 C 368.32 0.53 378.31 7.14 382.09 16.72 C 385.60 25.11 384.15 35.34 378.37 42.38 C 373.53 48.49 365.80 52.12 358.01 51.99 C 246.98 51.98 135.96 52.05 24.94 51.96 C 11.83 51.96 0.27 40.44 0.00 27.37 L 0.00 25.76 Z" />
<path fill="#ffffff" opacity="1.00" d=" M 0.00 178.96 C 0.28 165.14 13.15 153.43 26.92 154.39 C 180.22 154.43 333.53 154.37 486.83 154.42 C 499.84 154.31 511.41 165.53 512.00 178.48 L 512.00 181.16 C 511.64 194.25 499.94 205.68 486.82 205.58 C 333.52 205.64 180.21 205.57 26.91 205.61 C 13.29 206.52 0.56 195.10 0.00 181.46 L 0.00 178.96 Z" />
<path fill="#ffffff" opacity="1.00" d=" M 16.80 309.56 C 21.63 307.69 26.90 307.99 31.98 308.00 C 104.32 308.00 176.66 308.00 249.00 308.00 C 254.15 308.04 259.49 307.60 264.42 309.43 C 272.68 312.25 279.21 319.58 281.00 328.13 C 282.74 335.89 280.60 344.40 275.32 350.36 C 270.34 356.21 262.64 359.45 254.98 359.21 C 178.34 359.17 101.69 359.25 25.04 359.16 C 11.85 359.21 0.19 347.60 0.00 334.44 L 0.00 332.57 C 0.36 322.45 7.23 312.93 16.80 309.56 Z" />
</g>
</svg>
